<?xml version="1.0" encoding="utf-8"?>
<!-- Generator: Adobe Illustrator 18.1.0, SVG Export Plug-In . SVG Version: 6.00 Build 0)  -->
<!DOCTYPE svg PUBLIC "-//W3C//DTD SVG 1.1//EN" "http://www.w3.org/Graphics/SVG/1.1/DTD/svg11.dtd">
<svg version="1.1" id="Layer_2" xmlns="http://www.w3.org/2000/svg" xmlns:xlink="http://www.w3.org/1999/xlink" x="0px" y="0px"
	 viewBox="1245 -5 310 310" enable-background="new 1245 -5 310 310" xml:space="preserve">
<linearGradient id="SVGID_1_" gradientUnits="userSpaceOnUse" x1="1257.2144" y1="150.5491" x2="1542.7864" y2="150.5491">
	<stop  offset="0" style="stop-color:#CC7FB5"/>
	<stop  offset="1" style="stop-color:#5581C2"/>
</linearGradient>
<path fill="none" stroke="url(#SVGID_1_)" stroke-width="11" stroke-miterlimit="10" d="M1400,254c0,0,137.3-44.2,137.3-44.2l0,20.4
	L1399.9,287l-137.1-56.9v-20.4L1400,254z M1400,14.1l-137.3,57.1v20.2L1400,47.6c0,0,137.2,43.7,137.3,43.7l0-20.1L1400,14.1z
	 M1262.7,209.8V91.4 M1537.3,209.8V91.4"/>
<linearGradient id="SVGID_2_" gradientUnits="userSpaceOnUse" x1="65.3" y1="194.5" x2="144.7" y2="194.5" gradientTransform="matrix(1.4286 0 0 -1.4286 1250 428.5714)">
	<stop  offset="0" style="stop-color:#CC7FB5"/>
	<stop  offset="1" style="stop-color:#5581C2"/>
</linearGradient>
<path fill="url(#SVGID_2_)" d="M1456.7,150.7c0,31.3-25.4,56.7-56.7,56.7s-56.7-25.4-56.7-56.7S1368.7,94,1400,94
	C1431.3,94,1456.7,119.3,1456.7,150.7z"/>
</svg>
