<?xml version="1.0" encoding="utf-8"?>
<!-- Generator: Adobe Illustrator 18.1.0, SVG Export Plug-In . SVG Version: 6.00 Build 0)  -->
<!DOCTYPE svg PUBLIC "-//W3C//DTD SVG 1.1//EN" "http://www.w3.org/Graphics/SVG/1.1/DTD/svg11.dtd">
<svg version="1.1" id="Layer_1" xmlns="http://www.w3.org/2000/svg" xmlns:xlink="http://www.w3.org/1999/xlink" x="0px" y="0px"
	 viewBox="0 0 210 210" enable-background="new 0 0 210 210" xml:space="preserve">
<linearGradient id="SVGID_1_" gradientUnits="userSpaceOnUse" x1="5" y1="105.4854" x2="205" y2="105.4854">
	<stop  offset="0" style="stop-color:#CC7FB5"/>
	<stop  offset="1" style="stop-color:#5581C2"/>
</linearGradient>
<path fill="url(#SVGID_1_)" d="M105,5.8L5,47.3v13.8v88.6v14l100,41.5l100-41.5v-14V61.1V47.3L105,5.8z M12.8,66.8L105,37.4
	l92.2,29.4V144L105,173.4L12.8,144V66.8z M197.2,158.5L105,196.7l-92.2-38.2v-6.4l91,29l1.2,0.4l92.2-29.4V158.5z M106.2,29.6
	l-1.3-0.4L12.8,58.6v-6.2L105,14.2l92.2,38.2v6.2L106.2,29.6z M144.7,105.5c0,21.9-17.8,39.7-39.7,39.7c-21.9,0-39.7-17.8-39.7-39.7
	c0-21.9,17.8-39.7,39.7-39.7C126.9,65.8,144.7,83.5,144.7,105.5z"/>
</svg>
